<svg xmlns="http://www.w3.org/2000/svg" viewBox="350.0 317.0 872.8 268.3">
  <!-- Navy monogram -->
  <g transform="translate(0,1024) scale(0.1,-0.1)" fill="#2D3442">
    <path d="M3639 6931 l-39 -39 0 -1164 c0 -1280 -4 -1190 60 -1223 24 -12 78
-15 293 -15 365 0 347 -18 347 350 0 182 -3 248 -14 273 -7 18 -119 135 -247
262 -268 263 -279 276 -279 323 0 30 23 56 258 293 160 162 261 271 269 291
15 42 17 547 3 600 -6 20 -24 48 -41 62 l-31 26 -270 0 -270 0 -39 -39z M6042
6488 c-185 -184 -207 -211 -206 -259 2 -45 28 -91 64 -113 36 -21 640 -24 685
-4 45 20 72 106 46 146 -4 8 -88 94 -187 193 -233 234 -205 231 -402 37z
M4087 5862 c-10 -10 -17 -23 -17 -28 0 -5 5 -1 11 9 6 9 14 15 18 13 4 -3 8 1
8 9 0 19 -1 19 -20 -3z M4128 5569 c-47 -27 -27 -57 185 -264 111 -110 335
-330 497 -491 162 -160 306 -298 320 -308 43 -28 877 -24 914 5 51 40 40 61
-112 209 -76 74 -304 297 -507 495 l-368 360 -456 2 c-301 2 -462 -1 -473 -8z
M5889 5243 c-42 -35 -59 -79 -59 -150 l-1 -58 162 -157 c89 -86 172 -158 185
-161 41 -8 72 18 263 215 181 186 191 199 191 235 0 40 -21 73 -57 92 -15 7
-124 11 -337 11 l-314 0 -33 -27z"/>
  </g>
  <!-- Gold bar - clean geometry -->
  <path d="M519.0 333.0 L610.0 333.0 Q618.0 333.0 612.4 338.7 L511.6 441.3 Q506.0 447.0 498.0 447.0 L408.0 447.0 Q400.0 447.0 405.6 441.3 L505.4 338.7 Q511.0 333.0 519.0 333.0 Z" fill="#C5A55A"/>
  <path d="M523.0 350.0 L561.0 350.0 Q565.0 350.0 565.0 354.0 L565.0 354.0 Q565.0 358.0 561.0 358.0 L523.0 358.0 Q519.0 358.0 519.0 354.0 L519.0 354.0 Q519.0 350.0 523.0 350.0 Z" fill="#D9C478" opacity="0.55"/>
  <path d="M506.0 368.0 L548.0 368.0 Q552.0 368.0 552.0 372.0 L552.0 372.0 Q552.0 376.0 548.0 376.0 L506.0 376.0 Q502.0 376.0 502.0 372.0 L502.0 372.0 Q502.0 368.0 506.0 368.0 Z" fill="#D9C478" opacity="0.55"/>
  <path d="M506.0 368.0 L548.0 368.0 Q552.0 368.0 552.0 372.0 L552.0 372.0 Q552.0 376.0 548.0 376.0 L506.0 376.0 Q502.0 376.0 502.0 372.0 L502.0 372.0 Q502.0 368.0 506.0 368.0 Z" fill="#D9C478" opacity="0.55"/>
  <!-- Text KARAT CASH -->
  <g transform="translate(445.80,-220.40)">
    <g transform="translate(0,1024) scale(0.1,-0.1)" fill="#2D3442">
      <path d="M4495 3775 c-8 -22 -55 -149 -105 -281 -49 -133 -90 -244 -90 -248 0
-3 27 -6 59 -6 l60 0 22 60 22 60 117 0 117 0 24 -60 24 -60 57 0 c69 0 68 -4
21 114 -20 50 -67 172 -104 271 l-68 180 -70 5 -71 5 -15 -40z m120 -203 c46
-118 48 -112 -41 -112 -42 0 -74 4 -72 8 2 4 19 52 38 105 19 53 35 95 37 94
1 -2 18 -44 38 -95z M4988 3813 l-138 -4 0 -49 0 -50 85 0 85 0 2 -232 3 -233
58 -3 57 -3 0 236 0 235 90 0 90 0 0 49 0 48 -61 7 c-34 3 -78 5 -98 4 -20 -1
-98 -4 -173 -5z M5725 3796 c-211 -100 -217 -431 -10 -539 99 -51 258 -29 338
48 l28 27 -22 24 c-29 30 -32 30 -77 -5 -172 -137 -403 59 -317 267 53 126
223 163 322 70 l22 -20 30 22 c39 27 39 32 -6 69 -78 65 -215 81 -308 37z
M6334 3812 c-6 -4 -26 -45 -44 -92 -17 -47 -65 -169 -106 -271 -87 -221 -86
-211 -32 -207 42 3 42 4 66 66 l24 62 133 0 133 0 25 -62 25 -63 46 -3 46 -3
-18 48 c-164 429 -205 523 -233 523 -15 0 -33 2 -41 5 -7 3 -18 1 -24 -3z m95
-232 c54 -139 58 -130 -55 -130 -111 0 -106 -18 -42 148 23 57 44 100 49 95 4
-4 26 -55 48 -113z M6813 3809 c-85 -25 -132 -122 -98 -206 21 -54 68 -85 176
-117 98 -30 129 -53 129 -97 0 -96 -172 -116 -259 -29 l-28 29 -29 -30 -28
-29 34 -35 c109 -113 355 -76 391 58 28 103 -30 170 -187 216 -92 27 -124 52
-124 96 0 86 146 106 228 32 l22 -20 25 23 c31 29 31 41 2 68 -48 46 -170 65
-254 41z M2586 3553 c1 -142 3 -270 3 -285 1 -27 3 -28 56 -28 l55 0 0 78 c1
71 3 79 30 110 16 17 33 32 37 32 5 -1 44 -50 88 -110 l80 -109 73 -1 c39 0
72 2 72 5 0 2 -52 70 -115 150 -63 80 -115 150 -115 156 0 8 63 79 189 212
l45 47 -76 0 -77 0 -106 -117 c-59 -65 -111 -119 -116 -121 -5 -2 -9 48 -9
117 l0 121 -58 0 -59 0 3 -257z M3320 3788 c-5 -13 -43 -113 -85 -223 -64
-171 -94 -247 -122 -312 -4 -10 11 -13 58 -13 l64 0 23 60 24 60 115 0 114 0
26 -60 26 -60 63 0 64 0 -21 53 c-12 28 -36 90 -54 137 -18 47 -49 128 -70
180 -20 52 -46 119 -57 148 l-19 52 -70 0 c-63 0 -70 -2 -79 -22z m124 -232
c20 -50 36 -91 36 -93 0 -2 -36 -3 -81 -3 -73 0 -80 2 -74 18 4 9 21 54 37
100 36 96 35 96 82 -22z M3770 3525 l0 -285 60 0 59 0 3 98 3 97 37 3 c36 3
38 2 105 -97 l68 -100 73 -1 c83 0 82 -6 12 85 -26 33 -56 74 -68 92 l-22 31
45 22 c130 63 119 277 -18 329 -16 6 -101 11 -193 11 l-164 0 0 -285z m325
164 c30 -29 31 -84 2 -113 -24 -24 -33 -26 -115 -26 l-89 0 -6 33 c-3 18 -3
54 0 81 l6 48 93 -4 c68 -2 98 -7 109 -19z M7210 3525 l0 -285 45 0 45 0 0
120 0 120 146 0 c101 0 143 -3 139 -11 -4 -6 -4 -60 0 -120 l7 -109 39 0 39 0
0 285 0 285 -39 0 c-49 0 -51 -5 -51 -136 l0 -104 -140 0 -140 0 0 120 0 120
-45 0 -45 0 0 -285z"/>
    </g>
  </g>
</svg>