<svg xmlns="http://www.w3.org/2000/svg" viewBox="243.3 312.0 538.7 404.2">
  <!-- Navy elements (monogram + text) -->
  <g transform="translate(0,1024) scale(0.1,-0.1)" fill="#2D3442">
    <path d="M3642 6936 l-37 -34 -3 -1166 c-2 -1073 -1 -1168 14 -1192 34 -51 52
-54 338 -54 l264 0 31 26 c45 37 51 76 51 319 -1 308 24 258 -262 540 -269
265 -278 275 -278 325 0 31 20 54 260 295 194 194 263 269 270 295 13 44 13
531 0 585 -5 24 -21 51 -40 68 l-30 27 -270 0 -270 0 -38 -34z M6033 6478
c-203 -201 -218 -227 -179 -310 32 -67 38 -68 390 -68 337 0 351 2 379 50 43
72 35 86 -170 292 -244 245 -212 242 -420 36z M4133 5570 c-55 -22 -34 -55
150 -235 94 -94 318 -314 496 -490 178 -176 336 -328 350 -337 24 -16 64 -18
459 -18 l433 0 24 25 c43 42 34 60 -87 180 -432 424 -886 864 -905 873 -27 15
-885 16 -920 2z M5915 5260 c-54 -22 -85 -83 -85 -168 l-1 -57 162 -157 c89
-86 172 -158 185 -161 41 -7 71 17 263 215 181 186 191 199 191 235 0 40 -21
73 -57 92 -26 13 -626 15 -658 1z M5760 3811 c-198 -61 -263 -331 -120 -495
96 -109 292 -118 402 -18 l39 35 -22 23 c-29 30 -34 30 -74 -5 -45 -39 -122
-57 -180 -41 -170 48 -213 282 -72 394 59 47 176 46 236 -2 40 -32 41 -33 66
-15 38 28 37 40 -5 73 -68 54 -187 76 -270 51z M6815 3809 c-77 -23 -126 -112
-105 -190 17 -62 58 -93 172 -129 117 -37 140 -56 136 -107 -7 -80 -125 -106
-221 -50 -26 15 -47 32 -47 37 0 19 -27 10 -51 -16 l-24 -26 42 -38 c124 -110
345 -70 383 69 27 100 -37 169 -196 210 -151 39 -155 171 -5 171 46 0 66 -6
103 -29 l46 -29 21 22 c27 28 26 37 -2 64 -48 45 -171 65 -252 41z M2588 3793
c-2 -10 -2 -138 0 -285 l4 -268 54 0 54 0 0 78 c1 71 3 79 30 110 16 17 33 32
37 32 5 -1 44 -50 88 -110 l80 -109 73 -1 c39 0 72 2 72 5 0 4 -44 61 -98 128
-54 67 -107 134 -116 150 -22 32 -30 20 113 175 l103 112 -75 0 -76 0 -106
-117 c-59 -65 -111 -119 -116 -121 -5 -2 -9 48 -9 117 l0 121 -54 0 c-43 0
-54 -3 -58 -17z M3327 3803 c-3 -5 -46 -118 -96 -252 -51 -134 -99 -257 -107
-272 -20 -40 -21 -39 51 -39 39 0 65 4 65 11 0 6 10 33 21 60 l21 49 115 0
115 0 26 -60 27 -60 59 0 c72 0 77 -29 -54 308 l-103 262 -68 0 c-37 0 -70 -3
-72 -7z m113 -234 c19 -51 37 -96 38 -100 2 -5 -33 -9 -78 -9 -74 0 -81 2 -75
18 4 9 21 54 37 100 17 45 33 82 37 82 3 0 22 -41 41 -91z M3770 3525 l0 -285
60 0 60 0 0 101 0 100 42 -3 c40 -3 43 -6 108 -98 l66 -95 73 -3 74 -3 -36 48
c-20 26 -55 73 -77 105 l-40 56 45 22 c130 63 118 278 -18 329 -16 6 -101 11
-193 11 l-164 0 0 -285z m331 156 c26 -32 24 -77 -6 -106 -22 -23 -32 -25
-114 -25 l-89 0 -7 50 c-4 27 -4 63 0 81 l7 31 95 -4 c85 -3 97 -5 114 -27z
M4501 3788 c-49 -129 -201 -540 -201 -544 0 -2 27 -4 59 -4 l59 0 17 48 c10
26 19 53 21 60 2 9 36 12 122 12 l119 0 24 -60 24 -60 58 0 c72 0 73 -17 -16
210 -36 91 -81 209 -102 263 l-37 97 -69 0 c-63 0 -70 -2 -78 -22z m119 -227
c39 -107 42 -101 -46 -101 -57 0 -75 3 -72 13 50 141 73 195 80 183 4 -7 21
-50 38 -95z M4850 3760 l0 -50 85 0 85 0 0 -219 c0 -263 -3 -251 66 -251 l54
0 0 235 0 235 90 0 90 0 0 50 0 50 -235 0 -235 0 0 -50z M6280 3693 c-24 -65
-71 -183 -103 -263 -80 -198 -79 -192 -27 -188 42 3 43 4 67 66 l25 62 133 0
133 0 25 -62 c24 -62 26 -63 66 -66 29 -2 41 1 41 10 0 7 -48 136 -107 286
l-107 272 -51 0 -51 0 -44 -117z m149 -113 c54 -139 58 -130 -55 -130 -111 0
-106 -18 -42 148 22 57 44 100 48 95 5 -4 27 -55 49 -113z M7210 3541 c0 -309
-1 -301 51 -301 l38 0 3 121 3 120 140 1 140 2 1 -25 c1 -13 2 -68 3 -121 l1
-98 40 0 40 0 0 285 0 285 -39 0 c-47 0 -54 -21 -50 -153 l2 -82 -141 -3 -142
-3 -1 103 c-1 57 -2 111 -2 121 0 14 -8 17 -43 17 l-44 0 0 -269z"/>
  </g>
  <!-- Gold bar - clean geometry -->
  <path d="M519.0 333.0 L610.0 333.0 Q618.0 333.0 612.4 338.7 L511.6 441.3 Q506.0 447.0 498.0 447.0 L408.0 447.0 Q400.0 447.0 405.6 441.3 L505.4 338.7 Q511.0 333.0 519.0 333.0 Z" fill="#C5A55A"/>
  <path d="M523.0 350.0 L561.0 350.0 Q565.0 350.0 565.0 354.0 L565.0 354.0 Q565.0 358.0 561.0 358.0 L523.0 358.0 Q519.0 358.0 519.0 354.0 L519.0 354.0 Q519.0 350.0 523.0 350.0 Z" fill="#D9C478" opacity="0.55"/>
  <path d="M506.0 368.0 L548.0 368.0 Q552.0 368.0 552.0 372.0 L552.0 372.0 Q552.0 376.0 548.0 376.0 L506.0 376.0 Q502.0 376.0 502.0 372.0 L502.0 372.0 Q502.0 368.0 506.0 368.0 Z" fill="#D9C478" opacity="0.55"/>
  <path d="M506.0 368.0 L548.0 368.0 Q552.0 368.0 552.0 372.0 L552.0 372.0 Q552.0 376.0 548.0 376.0 L506.0 376.0 Q502.0 376.0 502.0 372.0 L502.0 372.0 Q502.0 368.0 506.0 368.0 Z" fill="#D9C478" opacity="0.55"/>
</svg>