<svg xmlns="http://www.w3.org/2000/svg" viewBox="350.0 317.0 324.1 268.3">
  <!-- Navy monogram -->
  <g transform="translate(0,1024) scale(0.1,-0.1)" fill="#FAFAF8">
    <path d="M3639 6931 l-39 -39 0 -1164 c0 -1280 -4 -1190 60 -1223 24 -12 78
-15 293 -15 365 0 347 -18 347 350 0 182 -3 248 -14 273 -7 18 -119 135 -247
262 -268 263 -279 276 -279 323 0 30 23 56 258 293 160 162 261 271 269 291
15 42 17 547 3 600 -6 20 -24 48 -41 62 l-31 26 -270 0 -270 0 -39 -39z M6042
6488 c-185 -184 -207 -211 -206 -259 2 -45 28 -91 64 -113 36 -21 640 -24 685
-4 45 20 72 106 46 146 -4 8 -88 94 -187 193 -233 234 -205 231 -402 37z
M4087 5862 c-10 -10 -17 -23 -17 -28 0 -5 5 -1 11 9 6 9 14 15 18 13 4 -3 8 1
8 9 0 19 -1 19 -20 -3z M4128 5569 c-47 -27 -27 -57 185 -264 111 -110 335
-330 497 -491 162 -160 306 -298 320 -308 43 -28 877 -24 914 5 51 40 40 61
-112 209 -76 74 -304 297 -507 495 l-368 360 -456 2 c-301 2 -462 -1 -473 -8z
M5889 5243 c-42 -35 -59 -79 -59 -150 l-1 -58 162 -157 c89 -86 172 -158 185
-161 41 -8 72 18 263 215 181 186 191 199 191 235 0 40 -21 73 -57 92 -15 7
-124 11 -337 11 l-314 0 -33 -27z"/>
  </g>
  <!-- Gold bar - clean geometry -->
  <path d="M519.0 333.0 L610.0 333.0 Q618.0 333.0 612.4 338.7 L511.6 441.3 Q506.0 447.0 498.0 447.0 L408.0 447.0 Q400.0 447.0 405.6 441.3 L505.4 338.7 Q511.0 333.0 519.0 333.0 Z" fill="#C5A55A"/>
  <path d="M523.0 350.0 L561.0 350.0 Q565.0 350.0 565.0 354.0 L565.0 354.0 Q565.0 358.0 561.0 358.0 L523.0 358.0 Q519.0 358.0 519.0 354.0 L519.0 354.0 Q519.0 350.0 523.0 350.0 Z" fill="#D9C478" opacity="0.55"/>
  <path d="M506.0 368.0 L548.0 368.0 Q552.0 368.0 552.0 372.0 L552.0 372.0 Q552.0 376.0 548.0 376.0 L506.0 376.0 Q502.0 376.0 502.0 372.0 L502.0 372.0 Q502.0 368.0 506.0 368.0 Z" fill="#D9C478" opacity="0.55"/>
  <path d="M506.0 368.0 L548.0 368.0 Q552.0 368.0 552.0 372.0 L552.0 372.0 Q552.0 376.0 548.0 376.0 L506.0 376.0 Q502.0 376.0 502.0 372.0 L502.0 372.0 Q502.0 368.0 506.0 368.0 Z" fill="#D9C478" opacity="0.55"/>
</svg>